<svg id="space" xmlns="http://www.w3.org/2000/svg" xmlns:xlink="http://www.w3.org/1999/xlink" width="2.5cm" height="1.3166cm" viewBox="0 0 70.8661 37.3209"><defs><clipPath id="clip-path"><rect y="0.0006" width="70.8661" height="37.3197" fill="none"/></clipPath></defs><g clip-path="url(#clip-path)"><rect y="21.4545" width="70.8661" height="17.7659" fill="#e77044"/><path d="M.5383,31.78l4.2636-.4011a2.1015,2.1015,0,0,0,.7387,1.087,2.1939,2.1939,0,0,0,1.2664.3272,2.141,2.141,0,0,0,1.34-.3689.8237.8237,0,0,0,.3694-.6848.7838.7838,0,0,0-.4855-.7166A8.8639,8.8639,0,0,0,6.1844,30.58a19.2545,19.2545,0,0,1-3.108-.7221,3.2773,3.2773,0,0,1-1.467-1.1228,2.9154,2.9154,0,0,1-.5962-1.8028,2.953,2.953,0,0,1,.6437-1.9084A3.8322,3.8322,0,0,1,3.43,23.8274a9.4224,9.4224,0,0,1,3.0288-.3954,10.4837,10.4837,0,0,1,2.96.3061,3.8617,3.8617,0,0,1,1.5935.95,4.9713,4.9713,0,0,1,1.0606,1.7413L8,26.83a1.3933,1.3933,0,0,0-.5276-.7915,2.1569,2.1569,0,0,0-1.2242-.3377,1.7371,1.7371,0,0,0-1.0607.2582.771.771,0,0,0-.3324.627.6679.6679,0,0,0,.4222.6216,6.8173,6.8173,0,0,0,1.8362.3794A12.5817,12.5817,0,0,1,10.3,28.262a3.5134,3.5134,0,0,1,1.5988,1.2335,3.0293,3.0293,0,0,1,.5541,1.7605,3.4644,3.4644,0,0,1-.5857,1.8873,3.9654,3.9654,0,0,1-1.8469,1.46,8.879,8.879,0,0,1-3.4351.5428A8.1585,8.1585,0,0,1,2.211,34.27,3.9378,3.9378,0,0,1,.5383,31.78Z" fill="#fff"/><path d="M14.5215,39.1566V23.6853h4.0209v1.6569a5.3432,5.3432,0,0,1,1.53-1.4142,4.3837,4.3837,0,0,1,2.0791-.496,4.0234,4.0234,0,0,1,3.4773,1.72,7.127,7.127,0,0,1,1.2295,4.253,6.1327,6.1327,0,0,1-1.34,4.2689,4.3838,4.3838,0,0,1-3.3877,1.4722,4.6991,4.6991,0,0,1-1.81-.3377A4.308,4.308,0,0,1,18.859,33.806v5.3506Zm4.3058-9.8358a2.9492,2.9492,0,0,0,.5594,1.9735,1.7924,1.7924,0,0,0,1.4141.6438,1.5633,1.5633,0,0,0,1.2559-.6174,3.3432,3.3432,0,0,0,.5065-2.0949,3.1125,3.1125,0,0,0-.5276-2,1.6134,1.6134,0,0,0-1.2876-.6385,1.73,1.73,0,0,0-1.3719.6437A3.2041,3.2041,0,0,0,18.8273,29.3208Z" fill="#fff"/><path d="M32.8317,27.3157l-4.1053-.4327a4.6036,4.6036,0,0,1,.67-1.6938,3.6926,3.6926,0,0,1,1.2611-1.0712,5.281,5.281,0,0,1,1.6252-.5066A13.1156,13.1156,0,0,1,34.52,23.432a17.7832,17.7832,0,0,1,3.1028.2164,3.9883,3.9883,0,0,1,1.9523.9023,3.1655,3.1655,0,0,1,.8654,1.3455,4.8617,4.8617,0,0,1,.3166,1.6622v4.95a5.96,5.96,0,0,0,.1,1.24,5.5483,5.5483,0,0,0,.4379,1.1451H37.2641a4.0934,4.0934,0,0,1-.3166-.66,4.8636,4.8636,0,0,1-.1477-.7123,5.5632,5.5632,0,0,1-1.678,1.1608,6.9867,6.9867,0,0,1-2.6489.4644,4.4333,4.4333,0,0,1-3.0447-.9287,2.9505,2.9505,0,0,1-1.04-2.29,3,3,0,0,1,.7493-2.1,5.07,5.07,0,0,1,2.765-1.2242q2.4165-.4854,3.1344-.6807a14.5779,14.5779,0,0,0,1.52-.5119,1.5117,1.5117,0,0,0-.3271-1.1081,1.6422,1.6422,0,0,0-1.15-.3166,2.9765,2.9765,0,0,0-1.583.3377A1.85,1.85,0,0,0,32.8317,27.3157Zm3.7253,2.2584q-.8864.3165-1.8468.5593a4.27,4.27,0,0,0-1.6569.686,1.0987,1.0987,0,0,0-.0053,1.62,1.4949,1.4949,0,0,0,1.0395.3219,2.6725,2.6725,0,0,0,1.3351-.3482,2.1087,2.1087,0,0,0,.8759-.85A2.8444,2.8444,0,0,0,36.557,30.26Z" fill="#fff"/><path d="M51.6906,30.5028l4.0842.4643a5.7247,5.7247,0,0,1-1.1081,2.211,5.1472,5.1472,0,0,1-1.9682,1.4511,7.73,7.73,0,0,1-3.0446.5171,11.2308,11.2308,0,0,1-2.9708-.3321,5.1929,5.1929,0,0,1-2.0421-1.0755,5.4286,5.4286,0,0,1-1.34-1.7449,6.1406,6.1406,0,0,1-.4855-2.6571,6.2586,6.2586,0,0,1,.591-2.8787,5.2106,5.2106,0,0,1,1.182-1.5129,5.4493,5.4493,0,0,1,1.5408-.9965,8.5462,8.5462,0,0,1,3.2188-.5166,7.4228,7.4228,0,0,1,4.1844.9815,5.1747,5.1747,0,0,1,2.021,2.8705l-4.042.5382a1.8724,1.8724,0,0,0-.6912-1.0817,2.2436,2.2436,0,0,0-1.3456-.3641,2.17,2.17,0,0,0-1.7255.7638,3.464,3.464,0,0,0-.66,2.3124,3.0071,3.0071,0,0,0,.6543,2.0963,2.1582,2.1582,0,0,0,1.6674.7163,2.2928,2.2928,0,0,0,1.4194-.4327A2.5771,2.5771,0,0,0,51.6906,30.5028Z" fill="#fff"/><path d="M70.1907,30.355H61.5792a2.779,2.779,0,0,0,.5593,1.5408,2.0359,2.0359,0,0,0,1.6252.7282,2.4409,2.4409,0,0,0,1.2031-.3166,2.8276,2.8276,0,0,0,.7493-.7071l4.2319.39a6.06,6.06,0,0,1-2.3429,2.422,8.51,8.51,0,0,1-3.9364.7335,8.058,8.058,0,0,1-3.5037-.6279,5.1443,5.1443,0,0,1-2.116-1.9946A6.02,6.02,0,0,1,57.21,29.31a5.6443,5.6443,0,0,1,1.6832-4.253,6.4137,6.4137,0,0,1,4.6488-1.6252,8.2734,8.2734,0,0,1,3.7992.7282,4.917,4.917,0,0,1,2.1213,2.1107,7.7161,7.7161,0,0,1,.7281,3.5987Zm-4.3691-2.0579a2.8717,2.8717,0,0,0-.67-1.7835,2.103,2.103,0,0,0-3.0658.2744,2.9755,2.9755,0,0,0-.496,1.5091Z" fill="#fff"/><path d="M.8279,14.5233l7.3086-.6874a3.6042,3.6042,0,0,0,1.2664,1.8633,3.7613,3.7613,0,0,0,2.1709.5608,3.67,3.67,0,0,0,2.2975-.6323,1.4118,1.4118,0,0,0,.6332-1.1739,1.3434,1.3434,0,0,0-.8322-1.2285,15.1886,15.1886,0,0,0-3.1659-.7587,33,33,0,0,1-5.3277-1.2378A5.6178,5.6178,0,0,1,2.6641,9.3041a4.997,4.997,0,0,1-1.0222-3.09A5.0615,5.0615,0,0,1,2.7455,2.9424,6.5673,6.5673,0,0,1,5.7847.8913,16.1521,16.1521,0,0,1,10.9768.2135a17.9715,17.9715,0,0,1,5.0745.5246A6.6225,6.6225,0,0,1,18.783,2.3663a8.5232,8.5232,0,0,1,1.8181,2.985l-6.983.6874a2.3879,2.3879,0,0,0-.9046-1.3568A3.6976,3.6976,0,0,0,10.615,4.103a2.9771,2.9771,0,0,0-1.8181.4426A1.3215,1.3215,0,0,0,8.227,5.62,1.1448,1.1448,0,0,0,8.9506,6.686a11.69,11.69,0,0,0,3.1478.65,21.56,21.56,0,0,1,5.4635,1.1567,6.0234,6.0234,0,0,1,2.7407,2.1144,5.1936,5.1936,0,0,1,.95,3.0181,5.9371,5.9371,0,0,1-1.0041,3.2351,6.7959,6.7959,0,0,1-3.1658,2.503,15.2174,15.2174,0,0,1-5.8886.9306q-5.2644,0-7.4986-1.5016A6.75,6.75,0,0,1,.8279,14.5233Z" fill="#e77044"/><path d="M45.0056,19.86H38.1311V16.7485A10.1324,10.1324,0,0,1,35.0285,19.48a8.2567,8.2567,0,0,1-3.8442.8141,6.2615,6.2615,0,0,1-4.767-1.8181Q24.69,16.6581,24.69,12.877V.6476h7.3992V11.2127a3.8831,3.8831,0,0,0,.6694,2.5689,2.3748,2.3748,0,0,0,1.8814.76,2.6822,2.6822,0,0,0,2.1618-1.0131,5.8461,5.8461,0,0,0,.8413-3.6362V.6476h7.3629Z" fill="#e77044"/><path d="M49.4741.6476h6.8564v3.13a10.207,10.207,0,0,1,3.1116-2.7408A8.1932,8.1932,0,0,1,63.2773.2135a6.2854,6.2854,0,0,1,4.7851,1.8181Q69.79,3.85,69.79,7.6488V19.86H62.3909V9.2951a3.8463,3.8463,0,0,0-.6694-2.56A2.39,2.39,0,0,0,59.84,5.9844a2.6756,2.6756,0,0,0-2.1709,1.0131,5.8966,5.8966,0,0,0-.8322,3.6363V19.86H49.4741Z" fill="#e77044"/></g></svg>